PathFileType	4	(X/Y/Z)	RBDS024static.trc
DataRate	CameraRate	NumFrames	NumMarkers	Units	OrigDataRate	OrigDataStartFrame	OrigNumFrames
150.000000	150.000000	4	48	mm	150.000000	37	150
Frame#	Time	L.Ankle			L.Ankle.Medial			L.ASIS			L.GTR			L.Heel.Bottom			L.Heel.Lateral			L.Heel.Top			L.HF			L.Iliac.Crest			L.Knee			L.Knee.Medial			L.MT1			L.MT2			L.MT5			L.PSIS			L.Shank.Bottom.Lateral			L.Shank.Bottom.Medial			L.Shank.Top.Lateral			L.Shank.Top.Medial			L.Thigh.Bottom.Lateral			L.Thigh.Bottom.Medial			L.Thigh.Top.Lateral			L.Thigh.Top.Medial			L.TT			R.Ankle			R.Ankle.Medial			R.ASIS			R.GTR			R.Heel.Bottom			R.Heel.Lateral			R.Heel.Top			R.HF			R.Iliac.Crest			R.Knee			R.Knee.Medial			R.MT1			R.MT2			R.MT5			R.PSIS			R.Shank.Bottom.Lateral			R.Shank.Bottom.Medial			R.Shank.Top.Lateral			R.Shank.Top.Medial			R.Thigh.Bottom.Lateral			R.Thigh.Bottom.Medial			R.Thigh.Top.Lateral			R.Thigh.Top.Medial			R.TT			
		X1	Y1	Z1	X2	Y2	Z2	X3	Y3	Z3	X4	Y4	Z4	X5	Y5	Z5	X6	Y6	Z6	X7	Y7	Z7	X8	Y8	Z8	X9	Y9	Z9	X10	Y10	Z10	X11	Y11	Z11	X12	Y12	Z12	X13	Y13	Z13	X14	Y14	Z14	X15	Y15	Z15	X16	Y16	Z16	X17	Y17	Z17	X18	Y18	Z18	X19	Y19	Z19	X20	Y20	Z20	X21	Y21	Z21	X22	Y22	Z22	X23	Y23	Z23	X24	Y24	Z24	X25	Y25	Z25	X26	Y26	Z26	X27	Y27	Z27	X28	Y28	Z28	X29	Y29	Z29	X30	Y30	Z30	X31	Y31	Z31	X32	Y32	Z32	X33	Y33	Z33	X34	Y34	Z34	X35	Y35	Z35	X36	Y36	Z36	X37	Y37	Z37	X38	Y38	Z38	X39	Y39	Z39	X40	Y40	Z40	X41	Y41	Z41	X42	Y42	Z42	X43	Y43	Z43	X44	Y44	Z44	X45	Y45	Z45	X46	Y46	Z46	X47	Y47	Z47	X48	Y48	Z48	

38	0.2466666666666667	718.4343872070313	108.3468551635742	1047.084838867188	736.3746948242188	115.3403244018555	1133.756225585938	907.6347045898438	1014.4580078125	1097.369140625	813.8507690429688	922.372802734375	1031.530883789063	645.6724243164063	41.1588249206543	1090.194213867188	667.9644775390625	61.49326324462891	1047.8662109375	654.7327880859375	85.38512420654297	1091.615966796875	773.8717041015625	468.3189086914063	1036.474365234375	813.8098754882813	1083.381958007813	1044.390747070313	786.2777099609375	530.016357421875	1040.959716796875	768.1875	517.9778442382813	1166.4638671875	869.6353149414063	54.65657424926758	1128.1474609375	876.0224609375	66.16638946533203	1089.14453125	834.6013793945313	49.10419845581055	1013.276672363281	722.5208129882813	1055.509643554688	1160.0908203125	728.3850708007813	183.1289978027344	1039.273559570313	683.4124755859375	188.0318908691406	1063.754150390625	731.0810546875	262.06591796875	1021.043701171875	685.3935546875	271.2955627441406	1047.44482421875	781.5784912109375	654.3677978515625	1022.686462402344	720.7091064453125	656.2378540039063	1060.73583984375	779.5203247070313	764.8002319335938	1020.669860839844	724.8794555664063	766.8050537109375	1062.000854492188	823.862060546875	450.3899841308594	1090.694946289063	705.618896484375	109.5008773803711	1410.812377929688	726.8345947265625	115.3084182739258	1322.460205078125	896.4458618164063	1011.451049804688	1336.804443359375	806.8032836914063	923.9589233398438	1396.110717773438	635.5742797851563	43.71638488769531	1366.408813476563	666.7740478515625	63.15273666381836	1411.352661132813	644.05126953125	87.44141387939453	1365.984375	776.3941040039063	475.5281677246094	1408.860595703125	822.9032592773438	1081.58154296875	1384.732421875	794.9390869140625	537.1358642578125	1400.49755859375	777.1712036132813	515.0689086914063	1275.520874023438	852.8466186523438	56.79689025878906	1323.87255859375	860.9903564453125	73.51005554199219	1369.096435546875	827.968017578125	51.71724319458008	1440.745239257813	723.1365966796875	1052.144653320313	1263.432739257813	705.4602661132813	191.7458801269531	1417.589111328125	667.8411254882813	199.5698547363281	1376.853515625	707.4111938476563	272.464111328125	1428.99658203125	671.8630981445313	279.713623046875	1389.200073242188	772.348876953125	656.2130126953125	1412.99560546875	715.72412109375	657.4611206054688	1366.017211914063	771.5167236328125	766.018798828125	1412.150146484375	718.6151123046875	766.8466186523438	1367.404296875	827.4075317382813	449.6913757324219	1359.030395507813	
39	0.2533333333333334	718.4268798828125	108.3488006591797	1047.082397460938	736.3845825195313	115.333610534668	1133.763671875	907.598876953125	1014.468017578125	1097.36474609375	813.818359375	922.3855590820313	1031.526611328125	645.6701049804688	41.14818954467773	1090.182373046875	667.9662475585938	61.4876823425293	1047.867797851563	654.7332763671875	85.38336181640625	1091.62451171875	773.8745727539063	468.3124389648438	1036.474609375	813.7763671875	1083.37109375	1044.386352539063	786.2551879882813	530.02294921875	1040.951293945313	768.177978515625	517.974365234375	1166.455688476563	869.6390991210938	54.65842437744141	1128.161376953125	876.0240478515625	66.16507720947266	1089.148803710938	834.6058349609375	49.10293960571289	1013.274047851563	722.489501953125	1055.5068359375	1160.091552734375	728.3943481445313	183.1305389404297	1039.279418945313	683.4088745117188	188.0259552001953	1063.755493164063	731.0675659179688	262.0651550292969	1021.037170410156	685.3822021484375	271.2911987304688	1047.439819335938	781.5607299804688	654.3735961914063	1022.68359375	720.6927490234375	656.2343139648438	1060.736450195313	779.4893798828125	764.8026123046875	1020.668701171875	724.8484497070313	766.810302734375	1061.999389648438	823.857421875	450.4105224609375	1090.685424804688	705.6224365234375	109.4989395141602	1410.807006835938	726.8375244140625	115.3024978637695	1322.46533203125	896.4276733398438	1011.447875976563	1336.791259765625	806.780517578125	923.9556274414063	1396.098388671875	635.5751342773438	43.71819686889648	1366.413330078125	666.7702026367188	63.15804672241211	1411.366455078125	644.0482177734375	87.43852233886719	1365.9765625	776.3818969726563	475.5145568847656	1408.856811523438	822.8805541992188	1081.569213867188	1384.7294921875	794.9400024414063	537.1381225585938	1400.505249023438	777.1569213867188	515.0659790039063	1275.520141601563	852.8475341796875	56.79642105102539	1323.877685546875	860.9915771484375	73.51148986816406	1369.081176757813	827.9614868164063	51.71316909790039	1440.754028320313	723.1082763671875	1052.144409179688	1263.428833007813	705.4605712890625	191.7440490722656	1417.58837890625	667.8455810546875	199.5619049072266	1376.839721679688	707.40234375	272.4630432128906	1428.996215820313	671.8642578125	279.7119140625	1389.203979492188	772.3313598632813	656.2105102539063	1412.984252929688	715.7169189453125	657.4539184570313	1366.009887695313	771.4946899414063	766.01708984375	1412.146850585938	718.5979614257813	766.8443603515625	1367.395629882813	827.3947143554688	449.6815490722656	1359.020874023438	
40	0.26	718.4358520507813	108.3461761474609	1047.068969726563	736.3815307617188	115.3341903686523	1133.750854492188	907.575927734375	1014.468139648438	1097.343994140625	813.7872314453125	922.3836059570313	1031.52587890625	645.6651000976563	41.15269470214844	1090.182495117188	667.9766235351563	61.49243545532227	1047.865112304688	654.7307739257813	85.38752746582031	1091.613647460938	773.8574829101563	468.3178405761719	1036.463134765625	813.7457275390625	1083.374755859375	1044.382446289063	786.2396850585938	530.0250244140625	1040.945922851563	768.1646118164063	517.9750366210938	1166.456787109375	869.6419067382813	54.65236663818359	1128.150390625	876.0259399414063	66.16283416748047	1089.137084960938	834.603271484375	49.0989875793457	1013.274047851563	722.4630126953125	1055.498046875	1160.08447265625	728.3818969726563	183.1241455078125	1039.266357421875	683.4052124023438	188.0280456542969	1063.753784179688	731.06591796875	262.0613098144531	1021.035278320313	685.376953125	271.2879638671875	1047.442260742188	781.5325927734375	654.3716430664063	1022.680236816406	720.6770629882813	656.231689453125	1060.730224609375	779.468505859375	764.8048095703125	1020.655212402344	724.8255615234375	766.8071899414063	1061.997924804688	823.8480224609375	450.4104309082031	1090.683715820313	705.6260986328125	109.5029754638672	1410.802368164063	726.8426513671875	115.2983093261719	1322.458740234375	896.4039306640625	1011.451049804688	1336.776489257813	806.7627563476563	923.9562377929688	1396.0947265625	635.5757446289063	43.71244049072266	1366.401245117188	666.77197265625	63.14963531494141	1411.346313476563	644.0499267578125	87.43486785888672	1365.973876953125	776.3790893554688	475.5218505859375	1408.847778320313	822.8662109375	1081.5634765625	1384.729736328125	794.9208374023438	537.1353759765625	1400.490966796875	777.1633911132813	515.0604248046875	1275.52099609375	852.8530883789063	56.80126190185547	1323.876220703125	860.9865112304688	73.50865173339844	1369.083618164063	827.9557495117188	51.72167587280273	1440.75146484375	723.0797119140625	1052.139282226563	1263.417724609375	705.466064453125	191.7374420166016	1417.590942382813	667.842041015625	199.5605621337891	1376.836181640625	707.404296875	272.4595642089844	1428.984375	671.8646240234375	279.7063293457031	1389.187255859375	772.3186645507813	656.2044067382813	1412.976318359375	715.7034912109375	657.44921875	1365.994018554688	771.47998046875	766.0150756835938	1412.137329101563	718.586181640625	766.8351440429688	1367.3837890625	827.3945922851563	449.68310546875	1359.02001953125	
41	0.2666666666666667	718.431396484375	108.3462677001953	1047.079223632813	736.379638671875	115.3324661254883	1133.747924804688	907.5510864257813	1014.469360351563	1097.33056640625	813.7493286132813	922.3856811523438	1031.510009765625	645.678466796875	41.14844512939453	1090.18310546875	667.9707641601563	61.48439788818359	1047.865234375	654.736572265625	85.37823486328125	1091.617797851563	773.8389282226563	468.3268432617188	1036.453491210938	813.70556640625	1083.375366210938	1044.370727539063	786.2384033203125	530.0283203125	1040.9423828125	768.1592407226563	517.9701538085938	1166.441528320313	869.6329345703125	54.6524543762207	1128.149780273438	876.0235595703125	66.16181945800781	1089.14111328125	834.5968017578125	49.09524917602539	1013.274291992188	722.43994140625	1055.48046875	1160.078735351563	728.3905639648438	183.1211090087891	1039.270385742188	683.4053955078125	188.0233764648438	1063.752319335938	731.056640625	262.0628051757813	1021.022277832031	685.3829345703125	271.2852478027344	1047.437744140625	781.525146484375	654.3740234375	1022.669372558594	720.6597290039063	656.2262573242188	1060.723876953125	779.4475708007813	764.7993774414063	1020.657043457031	724.806396484375	766.8060302734375	1061.99462890625	823.8356323242188	450.4059753417969	1090.670532226563	705.6262817382813	109.5089797973633	1410.803466796875	726.8486938476563	115.2879409790039	1322.471557617188	896.3843994140625	1011.454895019531	1336.76416015625	806.7305908203125	923.9576416015625	1396.083984375	635.5718994140625	43.71268844604492	1366.406860351563	666.771484375	63.14844512939453	1411.34326171875	644.0542602539063	87.43801116943359	1365.975219726563	776.3790283203125	475.5179138183594	1408.83984375	822.84521484375	1081.557983398438	1384.721801757813	794.924072265625	537.1340942382813	1400.484497070313	777.154296875	515.0648193359375	1275.505859375	852.84912109375	56.79758071899414	1323.87060546875	860.98876953125	73.50882720947266	1369.076782226563	827.95556640625	51.71933746337891	1440.747802734375	723.064208984375	1052.129150390625	1263.4140625	705.4605712890625	191.7372589111328	1417.583618164063	667.8433227539063	199.5565338134766	1376.831909179688	707.40380859375	272.458251953125	1428.985595703125	671.860107421875	279.6938171386719	1389.179443359375	772.302978515625	656.20556640625	1412.970092773438	715.6932373046875	657.447509765625	1365.98046875	771.464599609375	766.014404296875	1412.12890625	718.5663452148438	766.8388061523438	1367.381713867188	827.3875122070313	449.6857604980469	1359.009765625	
